<svg xmlns="http://www.w3.org/2000/svg" width="1755.95" height="662.044" viewBox="0 0 464.595 175.166">
    <defs>
        <filter id="a" x="-.397" width="450.793" y="-.324" height="450.647" color-interpolation-filters="sRGB">
            <feGaussianBlur stdDeviation="3.541"></feGaussianBlur>
        </filter>
    </defs>
    <path
        d="M50.753 128.934c-.342-.441-5.845-7.91-12.229-16.598C25.29 94.322 26.838 95.868 24.414 98.26c-2.424 2.391-1.767 2.677-8.434-3.676-5.783-5.51-5.783-5.51-2.707-8.716 3.676-3.829 3.61-2.982.558-7.126-1.384-1.88-2.518-3.545-2.518-3.7 0-.404 13.348-9.779 13.723-9.638.174.066.948.999 1.721 2.074 2.02 2.809 2.018 2.808 3.182 1.644.533-.533 14.867-14.963 31.852-32.068 16.985-17.104 31.074-31.13 31.308-31.17 1.84-.302 11.946 11.037 10.874 12.201-.622.675-15.465 15.644-32.983 33.264C53.47 68.97 39.109 83.57 39.074 83.792c-.034.223 4.476 6.57 10.022 14.105 17.588 23.89 16.223 21.954 15.784 22.385-.538.527-13.112 9.44-13.329 9.448-.097.004-.456-.355-.798-.796zm37.233-2.072c-7.912-1.25-13.231-6.745-13.215-13.653.023-9.815 6.814-14.53 21.65-15.032 5.05-.17 5.666-.884 4.412-5.113-1.454-4.901-9.054-4.857-10.328.06-.308 1.194-14.101 2.146-14.548 1.005-3.774-9.642 18.462-18.374 31.198-12.25 7.59 3.65 8.454 6.107 8.662 24.656.167 14.932.183 15.121 1.568 18.3.626 1.44.594 1.446-7.034 1.446-7.841 0-7.232.184-8.023-2.426-.47-1.553-.628-1.567-2.133-.186-2.683 2.46-8.018 3.854-12.21 3.193zm9.744-10.64c5.22-2.276 5.182-10.304-.05-10.304-5.922 0-8.31 1.821-8.31 6.337 0 3.925 4.05 5.847 8.36 3.968zm34.241 9.744c-.404-.477-10.974-44.733-10.794-45.194.207-.528 13.033-.615 13.449-.091.134.17 1.196 6.066 2.36 13.103 2.035 12.312 2.278 13.537 2.62 13.202.086-.084 1.728-5.994 3.65-13.135 1.92-7.14 3.564-13.094 3.65-13.23.197-.314 9.86-.339 10.057-.027.077.122 1.67 5.87 3.542 12.773 3.846 14.188 3.59 13.327 3.894 13.024.126-.124 1.213-5.89 2.416-12.814 1.203-6.923 2.3-12.726 2.438-12.896.412-.506 13.248-.44 13.447.07.17.435-10.412 44.755-10.798 45.221-.537.65-11.99.42-12.28-.246-.133-.306-1.843-6.22-3.8-13.144-1.957-6.923-3.604-12.636-3.66-12.694-.319-.335-.926 1.545-4.26 13.192-2.019 7.051-3.805 12.904-3.97 13.007-.552.344-11.662.231-11.96-.121z"
        fill="#f6a11e"></path>
    <path
        d="M238.083 66.169v11.354h-6.043v9.872h6.043v19.746c0 4.043-.292 8.283 2.037 11.847 3.193 4.89 10.149 5.767 15.589 5.042 1.274-.17 4.187-.116 5.028-1.232.514-.68.26-2.027.26-2.822v-7.158c-2.205.17-5.42.903-7.204-.838-1.67-1.631-1.106-4.725-1.106-6.813V87.395h7.554v-9.872h-7.554V66.169h-14.604m-8.31 40.972h-13.849c-.113 5.226-6.944 8.04-10.78 4.17-3.228-3.256-2.614-9.145-2.564-13.302.037-3.072.592-6.972 3.282-8.938 4.771-3.485 10.02.99 10.062 5.976h13.85c-.19-4.337-1.16-8.709-4.105-12.094-6.83-7.85-21.197-8.162-29.385-2.24-7.076 5.118-8.405 13.733-8.308 21.739.087 7.17 3.247 15.057 9.819 18.788 12.506 7.101 31.295 1.51 31.978-14.099m52.878-30.254c-4.454.58-8.551 1.857-12.086 4.7-10.15 8.158-10.228 27.31-1.489 36.413 4.795 4.995 12.555 6.9 19.366 6.101 6.137-.72 11.63-3.062 15.38-8.074 9.45-12.64 4.3-35.248-12.358-38.7-2.815-.583-5.95-.813-8.813-.44m46.079 4.585l-.252-3.95h-13.597v63.68h14.604v-21.226c7.403 6.665 19.187 5.146 24.654-3.209 8.647-13.218 4.787-41.9-15.84-39.943-4.075.387-6.379 2.448-9.57 4.648m96.943 27.15h-13.597c.04 14.209 18.943 17.872 29.964 14.315 4.215-1.36 8.619-3.887 10.306-8.144 3.973-10.033-4.59-16.575-13.58-18.598-3.308-.745-9.213-.964-10.963-4.358-1.49-2.887 2.03-5.474 4.669-5.652 3.663-.247 5.655 2.179 6.295 5.406h14.604c-.285-13.583-17.87-17.14-28.705-13.737-4.394 1.38-8.569 4.187-10.266 8.554-3.953 10.178 5.152 16.424 14.043 18.604 3.147.771 8.944 1.248 10.422 4.597 1.256 2.847-2.3 4.815-4.63 5.112-4.324.552-7.975-1.84-8.562-6.099m-61.439-31.1v24.436c0 5.48-.277 11.124 2.604 16.043 3.57 6.1 12.441 7.44 18.8 5.342 2.46-.811 5.415-2.472 6.546-4.848h.252l.69 4.683 3.59.253h9.82V77.523h-14.604v21.473c0 3.08.72 7.149-.108 10.12-1.03 3.686-7.179 4.902-10.216 3.186-3.353-1.894-2.77-6.153-2.77-9.357V77.523h-14.604m-79.82 10.44c10.427-1.473 10.677 14.6 7.836 20.906-1.022 2.27-3.077 3.77-5.57 4.122-10.14 1.432-10.303-13.353-8.178-19.672.94-2.795 2.83-4.92 5.912-5.356m50.36 0c9.792-1.383 9.815 12.7 8.189 18.931-.766 2.938-2.357 5.617-5.671 6.097-.917.132-1.86.082-2.77-.078-7.012-1.24-5.036-9.424-5.036-14.657 0-2.078-.667-5.522.297-7.405.907-1.77 3.103-2.621 4.991-2.888m-291.582 62.48c-10.755 1.698-8.33 20.18 3.022 18.576 11.024-1.558 8.62-20.413-3.022-18.576m63.453 12.48h-3.021c.057 6.672 12.275 9.041 14.275 2.468 1.658-5.446-3.386-6.593-7.477-7.757-1.534-.437-3.906-1.679-2.583-3.57 1.219-1.74 4.144-1.527 5.577-.218.605.552.867 1.67 1.615 2.017.745.345 1.888.149 2.693.149-.292-1.52-.526-3.024-1.789-4.1-2.979-2.538-10.318-2.325-11.422 2.125-1.152 4.646 2.724 5.92 6.413 6.946 1.502.417 3.81.786 4.015 2.68.202 1.86-1.912 2.91-3.512 2.948-2.456.058-4.414-1.28-4.784-3.688m171.223 0h-3.022c.058 6.671 12.275 9.041 14.277 2.468 1.657-5.446-3.387-6.593-7.478-7.757-1.534-.437-3.906-1.679-2.584-3.57 1.219-1.74 4.145-1.527 5.578-.218.604.552.866 1.67 1.614 2.017.745.345 1.888.149 2.694.149-.292-1.52-.526-3.024-1.788-4.1-2.981-2.538-10.319-2.325-11.424 2.125-1.15 4.646 2.724 5.92 6.413 6.946 1.504.417 3.81.786 4.016 2.68.202 1.86-1.913 2.91-3.512 2.948-2.455.058-4.414-1.28-4.784-3.688m42.805-12.48c-10.756 1.698-8.33 20.18 3.022 18.576 11.024-1.558 8.622-20.413-3.022-18.576m-306.186.385V168.6h3.022v-7.898h8.31v-2.468h-8.31v-4.69h9.316v-2.715H14.486m50.108 0V168.6h3.022v-7.404c2.105 0 5.622-.662 7.196 1.043 1.44 1.559.028 4.903 1.551 6.108.689.544 2.253.253 3.087.253-.727-2.666-.135-7.343-3.273-8.392 3.05-2.058 4.227-7.204 0-8.89-3.292-1.313-8.081-.489-11.583-.489m62.194 0v2.715h5.791V168.6h3.022v-15.056h5.791v-2.715h-14.604m24.676 0v9.873c0 1.707-.225 3.617.615 5.183 2.379 4.439 10.708 4.403 13.064 0 .895-1.671.674-3.607.674-5.43v-9.626h-3.022v9.38c0 1.476.216 3.151-.68 4.439-1.727 2.478-5.894 2.246-7.233-.49-.646-1.32-.396-3.022-.396-4.443v-8.886h-3.022m25.935 0V168.6c3.476 0 8.45.873 11.583-.872 5.137-2.86 5.171-12.81.252-15.879-3.117-1.943-8.303-1.02-11.835-1.02m25.936 0V168.6h13.093v-2.715h-10.072v-5.183h9.065v-2.468h-9.065v-4.69h9.82v-2.715h-12.841m23.417 0V168.6h3.021v-12.834l5.943 9.132 2.449 3.449 3.191.253v-17.77h-3.022v12.834l-5.71-9.132-2.43-3.449-3.442-.254m24.676 0v2.715h5.791V168.6h3.022v-15.056h5.791v-2.715h-14.604m90.144 0V168.6h3.021v-7.898h8.31v-2.468h-8.31v-4.69h9.317v-2.715h-12.338m37.517 0V168.6h12.339v-2.715h-9.317v-15.056h-3.022m20.144 17.771c3.387 0 4.273-1.347 4.784-4.69h7.303c.538 3.533 1.518 4.69 5.036 4.69l-6.799-17.77-3.4.253-2.092 4.683-4.832 12.834m24.173-17.77l4.532 17.77h3.525l3.526-13.328h.251c.388 2.828 1.458 5.627 2.173 8.392.343 1.326.474 3.208 1.244 4.364.501.753 2.259.792 3.024.424 1.146-.551 1.4-3.435 1.723-4.541 1.259-4.333 2.644-8.692 3.67-13.082l-3.124.254-1.123 3.449-2.299 9.626h-.252c-.433-2.893-1.447-5.799-2.173-8.64-.317-1.248-.5-3.023-1.208-4.117-.489-.754-2.302-.793-3.057-.423-.934.458-1.043 2.42-1.274 3.307-.864 3.29-1.911 6.544-2.611 9.873h-.252l-3.022-13.329h-3.273m-379.46 2.05c7.638-1.104 8.699 12.482 1.763 13.666-7.657 1.307-8.775-12.654-1.762-13.667m277.48 0c7.638-1.103 8.698 12.483 1.763 13.667-7.657 1.307-8.775-12.654-1.762-13.667m-253.812 5.85v-5.43c1.957 0 5.013-.563 6.793.325 1.826.91 1.774 3.815-.006 4.745-1.768.924-4.83.36-6.788.36m112.806 7.404v-12.834c2.242 0 5.108-.453 7.046.9 3.163 2.21 3.163 8.824 0 11.033-1.938 1.354-4.804.901-7.046.901m227.373-12.094l2.518 7.405h-5.288z"
        fill="#434343"></path>
    <path transform="matrix(.1699 -.2098 .24089 .326 26.24 55.241)" opacity=".709" fill="none" stroke="#6f6767"
        stroke-width="1.83" filter="url(#a)" d="M-96.41 29.832h2.138v32.072h-2.138z"></path>
    <path transform="matrix(.1699 -.2098 .24089 .326 40.138 42.68)" opacity=".709" fill="none" stroke="#6f6767"
        stroke-width="1.83" filter="url(#a)" d="M-96.41 29.832h2.138v32.072h-2.138z"></path>
</svg>