<!--?xml version="1.0" encoding="UTF-8" standalone="no"?-->

<svg version="1.1" xmlns="http://www.w3.org/2000/svg" xmlns:xlink="http://www.w3.org/1999/xlink" preserveAspectRatio="xMidYMid meet" viewBox="152.19254076613836 97.23925468652337 383.54042904290543 266.8580827898635" width="379.29" height="262.61" style=""><defs><path d="M423.79 285.43L424.53 285.46L425.26 285.49L426 285.53L426.73 285.58L427.47 285.63L428.2 285.69L428.93 285.76L429.67 285.84L430.4 285.92L431.13 286.01L431.47 286.05L431.72 286.1L432.23 286.21L432.73 286.32L433.24 286.44L433.74 286.56L434.25 286.68L434.75 286.81L435.25 286.94L435.75 287.08L436.25 287.22L436.74 287.36L437.24 287.51L437.73 287.66L438.23 287.82L438.72 287.98L439.21 288.15L439.7 288.32L440.18 288.49L440.67 288.67L441.16 288.85L441.64 289.03L442.12 289.22L442.6 289.42L443.08 289.61L443.56 289.81L444.03 290.02L444.51 290.23L444.98 290.44L445.45 290.66L445.92 290.88L446.38 291.1L446.85 291.33L447.31 291.57L447.77 291.8L448.23 292.04L448.69 292.29L448.74 292.31L449.35 292.65L449.96 292.99L450.57 293.35L451.16 293.71L451.75 294.08L452.34 294.46L452.92 294.84L453.49 295.24L454.06 295.64L454.62 296.05L455.17 296.47L455.72 296.89L456.27 297.32L456.8 297.76L457.33 298.21L457.86 298.67L458.37 299.13L458.88 299.6L459.38 300.07L459.88 300.56L460.37 301.05L460.85 301.55L461.33 302.05L461.79 302.56L462.26 303.08L462.71 303.61L463.16 304.14L463.59 304.68L464.02 305.22L464.45 305.77L464.86 306.33L465.27 306.89L465.67 307.46L466.06 308.03L466.45 308.62L466.82 309.2L467.19 309.8L467.55 310.39L467.9 311L468.25 311.61L469.09 313.13L479.59 330.05L480.01 330.65L480.58 331.46L481.17 332.27L481.77 333.07L482.38 333.86L483.01 334.64L483.64 335.41L484.29 336.17L484.94 336.92L485.61 337.66L486.28 338.39L486.97 339.11L487.67 339.82L488.38 340.51L489.09 341.2L489.82 341.87L490.56 342.54L491.31 343.19L492.06 343.83L492.83 344.46L493.6 345.08L494.39 345.69L495.18 346.28L495.98 346.87L496.79 347.44L497.61 348L498.44 348.54L499.28 349.08L500.12 349.6L500.97 350.11L501.83 350.61L502.7 351.09L503.58 351.57L504.46 352.03L505.35 352.47L506.25 352.91L507.15 353.33L508.07 353.73L508.98 354.13L509.91 354.51L510.84 354.88L522.17 359.23L508 360.72L507.44 360.78L506.88 360.83L506.31 360.88L505.75 360.92L505.18 360.96L504.62 360.99L504.06 361.02L503.49 361.04L502.93 361.06L502.36 361.08L501.8 361.09L501.24 361.1L500.67 361.1L500.11 361.09L499.54 361.09L498.98 361.07L498.42 361.06L497.85 361.04L497.29 361.01L496.73 360.98L496.16 360.94L495.6 360.9L495.04 360.86L494.48 360.81L493.92 360.76L493.35 360.7L492.79 360.64L492.23 360.57L491.67 360.5L491.12 360.42L490.56 360.34L490 360.25L489.44 360.16L488.88 360.07L488.33 359.97L487.77 359.87L487.37 359.79L487.09 359.71L486.61 359.59L486.13 359.46L485.66 359.32L485.18 359.18L484.71 359.04L484.23 358.89L483.76 358.74L483.29 358.58L482.83 358.42L482.36 358.26L481.9 358.09L481.43 357.92L480.97 357.75L480.51 357.57L480.05 357.39L479.59 357.2L479.14 357.01L478.68 356.82L478.23 356.62L477.78 356.42L477.33 356.21L476.88 356L476.44 355.79L475.99 355.57L475.55 355.35L475.11 355.12L474.67 354.89L474.23 354.66L473.8 354.43L473.37 354.19L472.94 353.94L472.51 353.69L472.08 353.44L471.66 353.19L471.23 352.93L470.81 352.67L470.24 352.3L469.68 351.93L469.12 351.55L468.56 351.17L468.02 350.77L467.48 350.37L466.94 349.97L466.41 349.55L465.88 349.13L465.37 348.7L464.85 348.27L464.35 347.83L463.85 347.38L463.35 346.93L462.86 346.47L462.38 346L461.91 345.53L461.44 345.05L460.98 344.56L460.52 344.07L460.07 343.57L459.63 343.07L459.2 342.56L458.77 342.04L458.35 341.52L457.93 340.99L457.52 340.46L457.12 339.92L456.73 339.37L456.34 338.83L455.96 338.27L455.59 337.71L455.23 337.14L454.87 336.57L454.52 336L454.18 335.42L453.85 334.83L453.52 334.24L453.2 333.64L452.89 333.04L449.38 326.16L440.98 313.42L440.88 313.27L440.78 313.12L440.68 312.97L440.58 312.82L440.48 312.68L440.38 312.53L440.28 312.38L440.17 312.23L440.07 312.09L439.96 311.94L439.86 311.8L439.75 311.65L439.65 311.51L439.54 311.36L439.43 311.22L439.32 311.07L439.21 310.93L439.11 310.79L439 310.64L438.89 310.5L438.77 310.36L438.66 310.22L438.55 310.08L438.44 309.94L438.32 309.8L438.21 309.66L438.1 309.52L437.98 309.38L437.87 309.25L437.75 309.11L437.63 308.97L437.52 308.83L437.4 308.7L437.28 308.56L437.16 308.43L437.04 308.29L436.92 308.16L436.8 308.03L436.68 307.89L436.56 307.76L435.93 307.08L435.29 306.41L434.64 305.76L433.98 305.11L433.31 304.47L432.63 303.85L431.94 303.23L431.25 302.63L430.55 302.04L429.83 301.45L429.11 300.88L428.39 300.32L427.65 299.77L426.91 299.24L426.15 298.71L425.39 298.19L424.63 297.69L423.85 297.2L423.07 296.72L422.29 296.25L421.49 295.79L420.69 295.35L419.88 294.91L419.07 294.49L418.24 294.08L417.42 293.69L416.58 293.3L415.74 292.93L414.9 292.57L414.05 292.22L413.19 291.89L412.33 291.56L411.46 291.25L410.59 290.96L409.71 290.67L408.83 290.4L407.94 290.14L407.05 289.9L406.16 289.67L405.26 289.45L399.93 288.2L404.78 287.15L405.5 287L406.23 286.85L406.95 286.72L407.68 286.58L408.4 286.46L409.13 286.34L409.86 286.23L410.59 286.13L411.32 286.03L412.05 285.94L412.78 285.86L413.51 285.78L414.24 285.71L414.98 285.65L415.71 285.59L416.44 285.54L417.18 285.5L417.91 285.46L418.65 285.44L419.38 285.41L420.12 285.4L420.85 285.39L421.59 285.39L422.32 285.4L423.06 285.41L423.06 285.41L423.79 285.43ZM487.22 359.76L487.37 359.79L487.57 359.84L488.05 359.96L488.53 360.07L489.01 360.18L485.56 359.4L486.11 359.53L486.66 359.64L486.66 359.64L487.22 359.76ZM194.26 333.94L195.35 334.46L196.38 335.09L197.33 335.84L198.18 336.68L198.94 337.61L199.59 338.63L200.12 339.72L200.53 340.87L200.81 342.09L200.94 343.34L200.93 344.64L200.8 346.37L200.66 347.48L200.42 348.55L200.07 349.58L199.62 350.56L199.08 351.48L198.46 352.34L197.76 353.13L196.98 353.85L196.14 354.49L195.24 355.04L194.28 355.51L193.28 355.89L192.23 356.16L191.14 356.33L190.02 356.38L188.78 356.31L187.57 356.12L186.42 355.8L185.31 355.36L184.27 354.82L183.29 354.18L182.38 353.44L181.56 352.61L180.82 351.71L180.18 350.73L179.64 349.68L179.2 348.58L178.89 347.42L178.69 346.21L178.62 344.97L178.62 343.39L178.68 342.35L178.83 341.35L179.08 340.38L179.42 339.45L179.85 338.56L180.36 337.73L180.95 336.94L181.61 336.23L182.33 335.57L183.12 334.99L183.97 334.49L184.87 334.06L185.81 333.73L186.8 333.49L187.82 333.34L189.32 333.21L190.62 333.18L191.88 333.29L193.1 333.55L193.1 333.55L194.26 333.94ZM202.52 306.49L203.22 306.53L203.91 306.58L204.6 306.63L205.29 306.7L205.98 306.78L206.67 306.87L207.36 306.96L208.04 307.07L208.73 307.19L209.41 307.31L210.09 307.45L210.77 307.59L211.44 307.75L212.11 307.91L212.79 308.09L213.45 308.27L214.12 308.46L214.78 308.67L215.44 308.88L216.1 309.1L216.76 309.33L217.41 309.57L218.06 309.82L218.7 310.08L219.34 310.35L219.98 310.63L220.62 310.91L221.25 311.21L221.87 311.52L222.5 311.83L223.12 312.16L223.73 312.49L225.25 313.33L243.15 322.05L243.82 322.34L244.75 322.73L245.68 323.1L246.61 323.46L247.55 323.8L248.49 324.13L249.44 324.44L250.39 324.74L251.34 325.03L252.3 325.3L253.26 325.55L254.23 325.8L255.19 326.02L256.16 326.24L257.14 326.43L258.11 326.62L259.09 326.79L260.07 326.94L261.05 327.08L262.03 327.21L263.02 327.32L264.01 327.41L264.99 327.49L265.98 327.56L266.97 327.61L267.96 327.65L268.96 327.67L269.95 327.68L270.94 327.67L271.94 327.65L272.93 327.61L273.92 327.56L274.91 327.5L275.91 327.41L276.9 327.32L277.89 327.21L278.88 327.08L279.87 326.94L280.86 326.78L281.84 326.61L282.83 326.43L294.73 324.08L283.53 332.89L283.09 333.23L282.64 333.58L282.19 333.92L281.73 334.25L281.28 334.59L280.82 334.92L280.36 335.24L279.89 335.56L279.42 335.88L278.95 336.19L278.48 336.5L278.01 336.81L277.53 337.11L277.05 337.41L276.57 337.7L276.09 337.99L275.6 338.28L275.11 338.56L274.62 338.84L274.13 339.11L273.63 339.38L273.14 339.65L272.64 339.91L272.14 340.17L271.63 340.42L271.13 340.67L270.62 340.91L270.11 341.16L269.6 341.39L269.08 341.63L268.57 341.85L268.05 342.08L267.53 342.3L267.01 342.52L266.48 342.73L265.96 342.94L265.57 343.09L265.3 343.17L264.82 343.32L264.35 343.46L263.88 343.6L263.4 343.74L262.92 343.87L262.44 344L261.97 344.12L261.49 344.24L261 344.35L260.52 344.46L260.04 344.57L259.56 344.67L259.07 344.77L258.59 344.86L258.1 344.95L257.61 345.04L257.13 345.12L256.64 345.2L256.15 345.27L255.66 345.34L255.17 345.4L254.68 345.46L254.19 345.52L253.7 345.57L253.21 345.62L252.71 345.67L252.22 345.71L251.73 345.74L251.23 345.77L250.74 345.8L250.24 345.82L249.75 345.84L249.26 345.86L248.76 345.87L248.26 345.87L247.77 345.88L247.09 345.87L246.42 345.86L245.74 345.84L245.07 345.8L244.4 345.76L243.72 345.71L243.05 345.65L242.38 345.59L241.72 345.51L241.05 345.42L240.38 345.33L239.72 345.22L239.06 345.11L238.4 344.99L237.74 344.86L237.08 344.72L236.43 344.57L235.78 344.42L235.13 344.25L234.48 344.08L233.83 343.89L233.19 343.7L232.55 343.5L231.91 343.3L231.28 343.08L230.65 342.85L230.02 342.62L229.39 342.38L228.77 342.12L228.15 341.87L227.53 341.6L226.92 341.32L226.31 341.04L225.71 340.74L225.1 340.44L224.5 340.13L223.91 339.81L223.32 339.49L222.73 339.15L222.15 338.81L215.52 334.85L201.62 328.54L201.46 328.47L201.29 328.4L201.13 328.32L200.96 328.25L200.8 328.18L200.63 328.11L200.47 328.04L200.3 327.97L200.14 327.9L199.97 327.83L199.8 327.77L199.64 327.7L199.47 327.63L199.3 327.57L199.13 327.5L198.97 327.44L198.8 327.38L198.63 327.31L198.46 327.25L198.29 327.19L198.12 327.13L197.95 327.07L197.78 327.01L197.61 326.95L197.44 326.89L197.27 326.84L197.1 326.78L196.93 326.72L196.76 326.67L196.59 326.61L196.42 326.56L196.25 326.51L196.07 326.45L195.9 326.4L195.73 326.35L195.56 326.3L195.38 326.25L195.21 326.2L195.04 326.15L194.86 326.11L193.97 325.87L193.07 325.65L192.17 325.44L191.27 325.24L190.36 325.06L189.45 324.89L188.55 324.73L187.64 324.59L186.72 324.47L185.81 324.35L184.9 324.25L183.98 324.17L183.07 324.09L182.15 324.03L181.24 323.99L180.32 323.96L179.4 323.94L178.48 323.93L177.57 323.94L176.65 323.97L175.73 324L174.82 324.05L173.9 324.12L172.99 324.19L172.08 324.28L171.16 324.39L170.25 324.51L169.35 324.64L168.44 324.78L167.53 324.94L166.63 325.12L165.73 325.3L164.83 325.5L163.93 325.71L163.04 325.94L162.15 326.18L161.26 326.44L160.37 326.7L159.49 326.98L158.61 327.28L153.44 329.05L156.99 325.59L157.52 325.07L158.06 324.57L158.6 324.06L159.14 323.56L159.69 323.07L160.24 322.58L160.8 322.1L161.36 321.63L161.93 321.16L162.5 320.69L163.07 320.23L163.65 319.78L164.23 319.33L164.82 318.88L165.41 318.45L166 318.01L166.6 317.59L167.21 317.17L167.81 316.75L168.42 316.34L169.04 315.94L169.66 315.54L170.28 315.15L170.9 314.76L171.53 314.38L172.16 314.01L172.8 313.64L173.44 313.27L174.08 312.92L174.73 312.57L175.38 312.22L176.03 311.88L176.69 311.55L177.35 311.22L178.01 310.9L178.68 310.59L178.99 310.44L179.23 310.35L179.72 310.17L180.21 310L180.7 309.83L181.19 309.66L181.68 309.5L182.17 309.34L182.67 309.18L183.16 309.03L183.66 308.89L184.16 308.75L184.65 308.61L185.15 308.47L185.65 308.34L186.16 308.22L186.66 308.1L187.16 307.98L187.67 307.87L188.17 307.76L188.68 307.65L189.19 307.55L189.7 307.46L190.21 307.36L190.72 307.28L191.23 307.19L191.74 307.11L192.25 307.04L192.76 306.97L193.28 306.9L193.79 306.84L194.31 306.78L194.82 306.72L195.34 306.67L195.86 306.63L196.37 306.59L196.89 306.55L196.95 306.55L197.65 306.5L198.34 306.47L199.04 306.45L199.74 306.44L200.44 306.44L201.13 306.44L201.83 306.46L201.83 306.46L202.52 306.49ZM264.9 343.34L265.43 343.14L265.57 343.09L265.77 343.02L266.24 342.87L266.71 342.71L267.18 342.54L263.84 343.73L264.37 343.53L264.37 343.53L264.9 343.34ZM504.97 314.32L506.07 314.84L507.09 315.47L508.04 316.22L508.89 317.06L509.65 317.99L510.3 319.01L510.83 320.1L511.24 321.25L511.52 322.46L511.66 323.72L511.64 325.02L511.51 326.75L511.37 327.86L511.13 328.93L510.78 329.96L510.33 330.93L509.79 331.86L509.17 332.71L508.47 333.51L507.7 334.23L506.85 334.87L505.95 335.42L504.99 335.89L503.99 336.27L502.94 336.54L501.85 336.71L500.73 336.76L499.49 336.69L498.28 336.5L497.13 336.18L496.02 335.74L494.98 335.2L494 334.56L493.09 333.82L492.27 332.99L491.53 332.09L490.89 331.11L490.35 330.06L489.92 328.96L489.6 327.8L489.4 326.59L489.33 325.35L489.33 323.76L489.39 322.73L489.54 321.73L489.79 320.76L490.13 319.83L490.56 318.94L491.07 318.1L491.66 317.32L492.32 316.6L493.05 315.95L493.83 315.37L494.68 314.86L495.58 314.44L496.52 314.11L497.51 313.87L498.53 313.72L500.04 313.59L501.33 313.56L502.59 313.67L503.81 313.93L503.81 313.93L504.97 314.32ZM179.35 310.28L178.99 310.44L178.75 310.54L178.26 310.72L177.78 310.91L177.3 311.11L176.82 311.31L181.38 309.39L180.7 309.68L180.02 309.98L180.02 309.98L179.35 310.28ZM186.13 222.68L186.86 222.71L187.6 222.74L188.33 222.78L189.07 222.82L189.8 222.88L190.53 222.94L191.27 223L192 223.08L192.73 223.16L193.08 223.2L193.33 223.24L193.84 223.35L194.34 223.45L194.85 223.56L195.35 223.67L195.86 223.79L196.36 223.92L196.86 224.04L197.36 224.17L197.86 224.31L198.36 224.45L198.86 224.59L199.36 224.74L199.85 224.89L200.35 225.04L200.84 225.2L201.33 225.36L201.82 225.53L202.31 225.7L202.79 225.88L203.28 226.06L203.76 226.24L204.24 226.43L204.73 226.62L205.2 226.82L205.68 227.02L206.16 227.22L206.63 227.43L207.11 227.64L207.58 227.85L208.05 228.07L208.52 228.3L208.98 228.52L209.45 228.75L209.91 228.99L210.37 229.23L210.42 229.25L211.04 229.58L211.65 229.92L212.26 230.27L212.86 230.62L213.45 230.98L214.04 231.36L214.63 231.73L215.2 232.12L215.78 232.52L216.34 232.92L216.9 233.33L217.46 233.75L218 234.17L218.54 234.61L219.08 235.05L219.61 235.5L220.13 235.96L220.64 236.42L221.15 236.89L221.65 237.37L222.15 237.85L222.64 238.34L223.12 238.84L223.59 239.35L224.06 239.86L224.52 240.38L224.97 240.91L225.42 241.44L225.85 241.98L226.28 242.52L226.71 243.08L227.12 243.63L227.53 244.2L227.93 244.77L228.32 245.35L228.7 245.93L229.07 246.52L229.44 247.11L229.8 247.71L230.15 248.32L231.01 249.83L241.71 266.62L242.13 267.22L242.72 268.03L243.32 268.83L243.93 269.62L244.55 270.41L245.18 271.18L245.82 271.94L246.48 272.69L247.14 273.43L247.82 274.17L248.5 274.89L249.2 275.6L249.9 276.3L250.62 276.98L251.34 277.66L252.08 278.33L252.82 278.98L253.58 279.63L254.34 280.26L255.12 280.88L255.9 281.49L256.69 282.09L257.49 282.67L258.3 283.25L259.12 283.81L259.94 284.36L260.78 284.9L261.62 285.42L262.47 285.93L263.33 286.43L264.19 286.92L265.07 287.4L265.95 287.86L266.84 288.31L267.73 288.74L268.64 289.17L269.55 289.58L270.46 289.97L271.39 290.36L272.32 290.72L273.25 291.08L284.63 295.3L270.48 296.96L269.92 297.02L269.36 297.08L268.79 297.13L268.23 297.18L267.67 297.23L267.1 297.27L266.54 297.3L265.98 297.34L265.41 297.36L264.85 297.38L264.28 297.4L263.72 297.41L263.16 297.42L262.59 297.43L262.03 297.42L261.46 297.42L260.9 297.41L260.34 297.39L259.77 297.37L259.21 297.35L258.65 297.32L258.08 297.29L257.52 297.25L256.96 297.21L256.4 297.16L255.84 297.11L255.27 297.05L254.71 296.99L254.15 296.93L253.59 296.86L253.03 296.78L252.47 296.7L251.92 296.62L251.36 296.53L250.8 296.44L250.24 296.34L249.84 296.27L249.56 296.2L249.08 296.08L248.6 295.95L248.12 295.82L247.64 295.69L247.17 295.55L246.69 295.41L246.22 295.26L245.75 295.11L245.28 294.96L244.81 294.8L244.35 294.64L243.88 294.47L243.42 294.31L242.95 294.13L242.49 293.95L242.03 293.77L241.57 293.59L241.12 293.4L240.66 293.21L240.21 293.01L239.76 292.81L239.31 292.6L238.86 292.4L238.41 292.18L237.97 291.97L237.53 291.75L237.08 291.52L236.64 291.3L236.21 291.07L235.77 290.83L235.34 290.59L234.91 290.35L234.48 290.1L234.05 289.85L233.62 289.6L233.2 289.34L232.62 288.99L232.06 288.62L231.49 288.25L230.93 287.87L230.38 287.48L229.84 287.09L229.29 286.69L228.76 286.28L228.23 285.87L227.71 285.45L227.19 285.02L226.68 284.58L226.17 284.14L225.67 283.69L225.18 283.24L224.69 282.78L224.21 282.31L223.74 281.83L223.27 281.35L222.81 280.87L222.35 280.37L221.91 279.87L221.46 279.37L221.03 278.86L220.6 278.34L220.18 277.82L219.77 277.29L219.36 276.76L218.96 276.22L218.57 275.67L218.18 275.12L217.8 274.57L217.43 274.01L217.07 273.44L216.71 272.87L216.36 272.29L216.02 271.71L215.69 271.12L215.36 270.53L215.05 269.93L211.46 263.09L202.91 250.45L202.81 250.3L202.71 250.16L202.61 250.01L202.5 249.86L202.4 249.71L202.29 249.57L202.19 249.42L202.09 249.27L201.98 249.13L201.87 248.98L201.77 248.84L201.66 248.7L201.55 248.55L201.44 248.41L201.33 248.27L201.22 248.12L201.11 247.98L201 247.84L200.89 247.7L200.78 247.56L200.67 247.42L200.55 247.28L200.44 247.14L200.32 247L200.21 246.86L200.09 246.72L199.98 246.59L199.86 246.45L199.74 246.31L199.63 246.18L199.51 246.04L199.39 245.91L199.27 245.77L199.15 245.64L199.03 245.5L198.91 245.37L198.79 245.24L198.67 245.11L198.54 244.97L198.42 244.84L197.78 244.17L197.13 243.51L196.47 242.86L195.81 242.22L195.13 241.6L194.45 240.98L193.75 240.37L193.05 239.78L192.34 239.19L191.62 238.62L190.89 238.05L190.16 237.5L189.42 236.96L188.67 236.43L187.91 235.92L187.14 235.41L186.37 234.91L185.59 234.43L184.8 233.96L184.01 233.5L183.21 233.05L182.4 232.62L181.59 232.19L180.77 231.78L179.95 231.38L179.11 231L178.28 230.62L177.43 230.26L176.58 229.91L175.73 229.57L174.87 229.24L174 228.93L173.13 228.63L172.25 228.35L171.37 228.07L170.49 227.81L169.6 227.56L168.7 227.33L167.81 227.11L166.9 226.9L161.57 225.71L166.4 224.61L167.12 224.45L167.84 224.3L168.57 224.15L169.29 224.01L170.02 223.88L170.74 223.75L171.47 223.63L172.2 223.52L172.93 223.41L173.65 223.31L174.38 223.22L175.12 223.14L175.85 223.06L176.58 222.99L177.31 222.92L178.04 222.86L178.78 222.81L179.51 222.77L180.25 222.73L180.98 222.7L181.72 222.68L182.45 222.66L183.19 222.65L183.92 222.65L184.66 222.65L185.39 222.66L185.39 222.66L186.13 222.68ZM249.69 296.24L249.84 296.27L250.04 296.32L250.52 296.43L251 296.54L251.49 296.64L248.03 295.91L248.58 296.02L249.13 296.13L249.13 296.13L249.69 296.24ZM432.59 286.21L431.86 286.1L431.47 286.05L431.21 286L430.7 285.9L430.19 285.81L429.68 285.71L429.17 285.63L434.05 286.43L433.32 286.31L433.32 286.31L432.59 286.21ZM440.52 236.47L441.22 236.51L441.91 236.55L442.6 236.61L443.29 236.68L443.98 236.76L444.67 236.84L445.36 236.94L446.04 237.05L446.73 237.16L447.41 237.29L448.09 237.43L448.77 237.57L449.44 237.73L450.11 237.89L450.79 238.06L451.45 238.25L452.12 238.44L452.78 238.64L453.44 238.86L454.1 239.08L454.76 239.31L455.41 239.55L456.06 239.8L456.7 240.06L457.34 240.33L457.98 240.61L458.62 240.89L459.25 241.19L459.87 241.5L460.5 241.81L461.12 242.13L461.73 242.47L463.25 243.31L481.15 252.03L481.82 252.32L482.75 252.7L483.68 253.08L484.61 253.43L485.55 253.78L486.49 254.11L487.44 254.42L488.39 254.72L489.34 255L490.3 255.28L491.26 255.53L492.23 255.77L493.19 256L494.16 256.21L495.14 256.41L496.11 256.6L497.09 256.77L498.07 256.92L499.05 257.06L500.03 257.19L501.02 257.3L502.01 257.39L502.99 257.47L503.98 257.54L504.97 257.59L505.96 257.63L506.96 257.65L507.95 257.66L508.94 257.65L509.94 257.63L510.93 257.59L511.92 257.54L512.91 257.47L513.91 257.39L514.9 257.3L515.89 257.19L516.88 257.06L517.87 256.92L518.86 256.76L519.84 256.59L520.83 256.41L532.73 254.06L521.53 262.86L521.09 263.21L520.64 263.56L520.19 263.9L519.73 264.23L519.28 264.57L518.82 264.89L518.36 265.22L517.89 265.54L517.42 265.86L516.95 266.17L516.48 266.48L516.01 266.79L515.53 267.09L515.05 267.39L514.57 267.68L514.09 267.97L513.6 268.26L513.11 268.54L512.62 268.81L512.13 269.09L511.63 269.36L511.14 269.62L510.64 269.89L510.14 270.14L509.63 270.4L509.13 270.65L508.62 270.89L508.11 271.13L507.6 271.37L507.08 271.6L506.57 271.83L506.05 272.06L505.53 272.28L505.01 272.49L504.48 272.71L503.96 272.91L503.57 273.06L503.3 273.15L502.82 273.3L502.35 273.44L501.88 273.58L501.4 273.72L500.92 273.85L500.44 273.97L499.97 274.1L499.49 274.21L499 274.33L498.52 274.44L498.04 274.55L497.56 274.65L497.07 274.75L496.59 274.84L496.1 274.93L495.61 275.02L495.13 275.1L494.64 275.17L494.15 275.25L493.66 275.32L493.17 275.38L492.68 275.44L492.19 275.5L491.7 275.55L491.21 275.6L490.71 275.64L490.22 275.68L489.73 275.72L489.23 275.75L488.74 275.78L488.24 275.8L487.75 275.82L487.26 275.84L486.76 275.85L486.26 275.85L485.77 275.85L485.09 275.85L484.42 275.84L483.74 275.81L483.07 275.78L482.4 275.74L481.72 275.69L481.05 275.63L480.38 275.56L479.72 275.49L479.05 275.4L478.38 275.31L477.72 275.2L477.06 275.09L476.4 274.97L475.74 274.84L475.08 274.7L474.43 274.55L473.78 274.4L473.13 274.23L472.48 274.06L471.83 273.87L471.19 273.68L470.55 273.48L469.91 273.27L469.28 273.06L468.65 272.83L468.02 272.6L467.39 272.35L466.77 272.1L466.15 271.84L465.53 271.58L464.92 271.3L464.31 271.01L463.71 270.72L463.1 270.42L462.5 270.11L461.91 269.79L461.32 269.47L460.73 269.13L460.15 268.79L453.52 264.83L439.62 258.52L439.46 258.45L439.29 258.38L439.13 258.3L438.96 258.23L438.8 258.16L438.63 258.09L438.47 258.02L438.3 257.95L438.14 257.88L437.97 257.81L437.8 257.74L437.64 257.68L437.47 257.61L437.3 257.55L437.13 257.48L436.97 257.42L436.8 257.35L436.63 257.29L436.46 257.23L436.29 257.17L436.12 257.11L435.95 257.05L435.78 256.99L435.61 256.93L435.44 256.87L435.27 256.81L435.1 256.76L434.93 256.7L434.76 256.65L434.59 256.59L434.42 256.54L434.25 256.49L434.07 256.43L433.9 256.38L433.73 256.33L433.56 256.28L433.38 256.23L433.21 256.18L433.04 256.13L432.86 256.08L431.97 255.85L431.07 255.62L430.17 255.41L429.27 255.22L428.36 255.04L427.45 254.87L426.55 254.71L425.64 254.57L424.72 254.44L423.81 254.33L422.9 254.23L421.98 254.14L421.07 254.07L420.15 254.01L419.24 253.97L418.32 253.94L417.4 253.92L416.48 253.91L415.57 253.92L414.65 253.94L413.73 253.98L412.82 254.03L411.9 254.09L410.99 254.17L410.08 254.26L409.16 254.37L408.25 254.49L407.35 254.62L406.44 254.76L405.53 254.92L404.63 255.09L403.73 255.28L402.83 255.48L401.93 255.69L401.04 255.92L400.15 256.16L399.26 256.41L398.37 256.68L397.49 256.96L396.61 257.26L391.44 259.03L394.99 255.57L395.52 255.05L396.06 254.54L396.6 254.04L397.14 253.54L397.69 253.05L398.24 252.56L398.8 252.08L399.36 251.61L399.93 251.13L400.5 250.67L401.07 250.21L401.65 249.75L402.23 249.31L402.82 248.86L403.41 248.42L404 247.99L404.6 247.57L405.21 247.14L405.81 246.73L406.42 246.32L407.04 245.92L407.66 245.52L408.28 245.13L408.9 244.74L409.53 244.36L410.16 243.98L410.8 243.62L411.44 243.25L412.08 242.9L412.73 242.54L413.38 242.2L414.03 241.86L414.69 241.53L415.35 241.2L416.01 240.88L416.68 240.57L416.99 240.42L417.23 240.33L417.72 240.15L418.21 239.98L418.7 239.81L419.19 239.64L419.68 239.48L420.17 239.32L420.67 239.16L421.16 239.01L421.66 238.87L422.16 238.72L422.65 238.59L423.15 238.45L423.65 238.32L424.16 238.2L424.66 238.08L425.16 237.96L425.67 237.84L426.17 237.74L426.68 237.63L427.19 237.53L427.7 237.43L428.21 237.34L428.72 237.25L429.23 237.17L429.74 237.09L430.25 237.02L430.76 236.94L431.28 236.88L431.79 236.81L432.31 236.76L432.82 236.7L433.34 236.65L433.86 236.61L434.37 236.57L434.89 236.53L434.95 236.52L435.65 236.48L436.34 236.45L437.04 236.43L437.74 236.42L438.44 236.42L439.13 236.42L439.83 236.44L439.83 236.44L440.52 236.47ZM502.9 273.32L503.43 273.12L503.57 273.06L503.77 273L504.24 272.85L504.71 272.69L505.18 272.52L501.84 273.7L502.37 273.51L502.37 273.51L502.9 273.32ZM190.26 247.2L191.35 247.72L192.38 248.35L193.33 249.1L194.18 249.94L194.94 250.87L195.59 251.89L196.12 252.98L196.53 254.13L196.81 255.35L196.94 256.6L196.93 257.9L196.8 259.63L196.66 260.74L196.42 261.81L196.07 262.84L195.62 263.82L195.08 264.74L194.46 265.6L193.76 266.39L192.98 267.11L192.14 267.75L191.24 268.3L190.28 268.77L189.28 269.15L188.23 269.42L187.14 269.59L186.02 269.64L184.78 269.57L183.57 269.38L182.42 269.06L181.31 268.62L180.27 268.08L179.29 267.44L178.38 266.7L177.56 265.87L176.82 264.97L176.18 263.99L175.64 262.94L175.2 261.84L174.89 260.68L174.69 259.48L174.62 258.23L174.62 256.65L174.68 255.61L174.83 254.61L175.08 253.64L175.42 252.71L175.85 251.82L176.36 250.99L176.95 250.21L177.61 249.49L178.33 248.83L179.12 248.25L179.97 247.75L180.87 247.32L181.81 246.99L182.8 246.75L183.82 246.6L185.32 246.47L186.62 246.44L187.88 246.55L189.1 246.81L189.1 246.81L190.26 247.2ZM224.02 142.86L224.72 143.09L225.41 143.34L226.11 143.59L226.8 143.85L227.48 144.11L228.17 144.38L228.85 144.66L229.53 144.94L230.21 145.23L230.88 145.52L231.55 145.83L232.22 146.13L232.89 146.45L233.55 146.77L234.21 147.09L234.86 147.43L235.51 147.76L236.16 148.11L236.81 148.46L237.45 148.82L238.09 149.18L238.73 149.55L239.36 149.92L239.99 150.3L240.62 150.69L241.24 151.08L241.86 151.48L242.47 151.89L243.08 152.3L243.69 152.71L244.29 153.13L244.89 153.56L245.49 154L246.08 154.43L246.35 154.64L246.55 154.81L246.94 155.15L247.32 155.5L247.7 155.85L248.08 156.21L248.46 156.56L248.83 156.92L249.2 157.28L249.56 157.65L249.93 158.02L250.29 158.39L250.65 158.76L251 159.14L251.35 159.52L251.7 159.9L252.04 160.29L252.38 160.68L252.72 161.07L253.06 161.47L253.39 161.86L253.72 162.26L254.04 162.67L254.36 163.07L254.68 163.48L255 163.89L255.31 164.3L255.62 164.72L255.92 165.14L256.22 165.56L256.52 165.98L256.82 166.41L257.11 166.84L257.4 167.27L257.68 167.7L257.96 168.14L258.24 168.58L258.27 168.63L258.64 169.22L258.99 169.82L259.34 170.43L259.68 171.04L260.01 171.65L260.33 172.27L260.65 172.89L260.95 173.52L261.25 174.15L261.53 174.78L261.81 175.42L262.07 176.06L262.33 176.7L262.58 177.35L262.82 178L263.05 178.66L263.27 179.31L263.48 179.97L263.68 180.64L263.87 181.3L264.06 181.97L264.23 182.64L264.39 183.31L264.55 183.99L264.69 184.67L264.82 185.35L264.95 186.03L265.06 186.72L265.17 187.4L265.26 188.09L265.35 188.78L265.43 189.47L265.49 190.16L265.55 190.86L265.6 191.55L265.63 192.25L265.66 192.95L265.68 193.64L265.68 194.34L265.68 195.04L265.66 196.78L266.42 216.68L266.49 217.41L266.58 218.4L266.69 219.4L266.82 220.39L266.96 221.38L267.12 222.36L267.29 223.35L267.47 224.33L267.67 225.3L267.88 226.27L268.11 227.24L268.35 228.21L268.61 229.17L268.88 230.12L269.16 231.07L269.46 232.02L269.77 232.96L270.1 233.9L270.44 234.83L270.79 235.75L271.16 236.68L271.54 237.59L271.94 238.5L272.35 239.4L272.77 240.3L273.21 241.19L273.65 242.08L274.12 242.96L274.59 243.83L275.08 244.69L275.58 245.55L276.1 246.4L276.62 247.25L277.16 248.08L277.72 248.91L278.28 249.73L278.86 250.54L279.45 251.35L280.06 252.15L280.67 252.94L281.3 253.72L288.99 263.1L275.94 257.39L275.43 257.16L274.91 256.93L274.4 256.69L273.89 256.45L273.38 256.2L272.87 255.95L272.37 255.7L271.86 255.44L271.36 255.18L270.87 254.91L270.37 254.64L269.88 254.37L269.39 254.09L268.9 253.81L268.41 253.52L267.93 253.24L267.44 252.94L266.97 252.64L266.49 252.34L266.01 252.04L265.54 251.73L265.07 251.42L264.61 251.1L264.14 250.78L263.68 250.45L263.22 250.13L262.77 249.8L262.31 249.46L261.86 249.12L261.41 248.78L260.97 248.43L260.53 248.08L260.09 247.73L259.65 247.37L259.22 247.01L258.78 246.64L258.47 246.37L258.26 246.17L257.91 245.82L257.56 245.47L257.21 245.12L256.87 244.77L256.53 244.41L256.19 244.05L255.86 243.68L255.53 243.31L255.2 242.94L254.87 242.57L254.55 242.2L254.23 241.82L253.92 241.44L253.61 241.05L253.3 240.67L252.99 240.28L252.69 239.89L252.39 239.5L252.1 239.1L251.8 238.7L251.51 238.3L251.23 237.9L250.95 237.49L250.67 237.08L250.39 236.67L250.12 236.26L249.85 235.84L249.59 235.42L249.33 235L249.07 234.58L248.82 234.16L248.57 233.73L248.32 233.3L248.08 232.87L247.84 232.43L247.6 232L247.29 231.4L246.98 230.8L246.68 230.19L246.39 229.58L246.11 228.97L245.84 228.35L245.57 227.74L245.32 227.11L245.07 226.49L244.83 225.86L244.6 225.23L244.38 224.6L244.16 223.96L243.96 223.32L243.76 222.68L243.57 222.03L243.4 221.39L243.23 220.74L243.06 220.09L242.91 219.43L242.77 218.78L242.63 218.12L242.51 217.46L242.39 216.8L242.28 216.14L242.18 215.48L242.09 214.81L242.01 214.15L241.94 213.48L241.87 212.81L241.82 212.14L241.77 211.47L241.73 210.8L241.71 210.13L241.69 209.45L241.68 208.78L241.68 208.1L241.69 207.43L241.7 206.75L241.73 206.08L242.09 198.36L241.09 183.14L241.07 182.96L241.06 182.78L241.05 182.6L241.03 182.42L241.02 182.24L241 182.06L240.99 181.88L240.97 181.7L240.95 181.52L240.93 181.34L240.91 181.17L240.89 180.99L240.87 180.81L240.85 180.63L240.83 180.45L240.81 180.27L240.78 180.09L240.76 179.92L240.73 179.74L240.71 179.56L240.68 179.38L240.65 179.21L240.63 179.03L240.6 178.85L240.57 178.67L240.54 178.5L240.51 178.32L240.48 178.14L240.44 177.96L240.41 177.79L240.38 177.61L240.34 177.43L240.31 177.26L240.27 177.08L240.24 176.91L240.2 176.73L240.16 176.55L240.12 176.38L240.08 176.2L240.04 176.03L239.83 175.13L239.6 174.23L239.36 173.34L239.11 172.45L238.84 171.56L238.56 170.68L238.27 169.81L237.96 168.94L237.65 168.08L237.31 167.22L236.97 166.37L236.62 165.52L236.25 164.68L235.87 163.84L235.47 163.01L235.07 162.19L234.65 161.37L234.22 160.56L233.78 159.76L233.33 158.96L232.86 158.17L232.39 157.39L231.9 156.61L231.4 155.84L230.89 155.08L230.36 154.33L229.83 153.58L229.29 152.84L228.73 152.11L228.16 151.39L227.58 150.67L226.99 149.97L226.39 149.27L225.78 148.58L225.16 147.9L224.53 147.23L223.88 146.56L223.23 145.91L222.57 145.26L221.89 144.63L217.88 140.91L222.62 142.4L223.32 142.62L223.32 142.62L224.02 142.86ZM499.26 226.99L500.35 227.51L501.38 228.15L502.33 228.89L503.18 229.73L503.94 230.67L504.59 231.68L505.12 232.77L505.53 233.93L505.81 235.14L505.94 236.4L505.93 237.69L505.8 239.42L505.66 240.53L505.42 241.6L505.07 242.63L504.62 243.61L504.08 244.53L503.46 245.39L502.76 246.18L501.98 246.9L501.14 247.54L500.24 248.1L499.28 248.56L498.28 248.94L497.23 249.21L496.14 249.38L495.02 249.43L493.78 249.37L492.57 249.17L491.42 248.85L490.31 248.41L489.27 247.87L488.29 247.23L487.38 246.49L486.56 245.66L485.82 244.76L485.18 243.78L484.64 242.73L484.2 241.63L483.89 240.47L483.69 239.27L483.62 238.02L483.62 236.44L483.68 235.41L483.83 234.4L484.08 233.43L484.42 232.5L484.85 231.61L485.36 230.78L485.95 230L486.61 229.28L487.33 228.62L488.12 228.04L488.97 227.54L489.87 227.12L490.81 226.78L491.8 226.54L492.82 226.4L494.32 226.26L495.62 226.23L496.88 226.34L498.1 226.6L498.1 226.6L499.26 226.99ZM258.36 246.27L258.47 246.37L258.62 246.52L258.98 246.86L259.34 247.2L259.7 247.53L257.09 245.15L257.51 245.53L257.93 245.9L257.93 245.9L258.36 246.27ZM417.35 240.26L416.99 240.42L416.75 240.51L416.26 240.7L415.78 240.89L415.3 241.09L414.82 241.29L419.38 239.37L418.7 239.66L418.02 239.96L418.02 239.96L417.35 240.26ZM314.96 103.19L315.45 103.74L315.93 104.3L316.42 104.86L316.89 105.42L317.36 105.99L317.83 106.56L318.29 107.13L318.74 107.71L319.19 108.3L319.63 108.88L320.07 109.48L320.5 110.07L320.92 110.67L321.34 111.28L321.76 111.88L322.17 112.49L322.57 113.11L322.97 113.73L323.36 114.35L323.74 114.98L324.12 115.61L324.49 116.24L324.86 116.88L325.22 117.52L325.58 118.16L325.93 118.81L326.27 119.46L326.61 120.11L326.94 120.77L327.27 121.43L327.59 122.09L327.9 122.76L328.21 123.43L328.51 124.1L328.64 124.42L328.73 124.66L328.9 125.15L329.06 125.64L329.22 126.13L329.38 126.63L329.53 127.12L329.68 127.62L329.83 128.12L329.97 128.61L330.1 129.11L330.23 129.61L330.36 130.12L330.49 130.62L330.61 131.12L330.72 131.63L330.83 132.13L330.94 132.64L331.04 133.14L331.14 133.65L331.23 134.16L331.32 134.67L331.41 135.18L331.49 135.69L331.57 136.2L331.64 136.72L331.71 137.23L331.78 137.74L331.84 138.26L331.89 138.77L331.95 139.29L331.99 139.8L332.04 140.32L332.08 140.84L332.11 141.36L332.14 141.87L332.17 142.39L332.17 142.45L332.2 143.15L332.22 143.85L332.22 144.54L332.22 145.24L332.21 145.94L332.19 146.64L332.15 147.33L332.11 148.03L332.06 148.72L332 149.41L331.92 150.1L331.84 150.79L331.75 151.48L331.65 152.16L331.54 152.85L331.42 153.53L331.29 154.21L331.15 154.89L331 155.57L330.84 156.24L330.67 156.92L330.49 157.58L330.3 158.25L330.11 158.92L329.9 159.58L329.68 160.24L329.46 160.89L329.22 161.55L328.98 162.2L328.72 162.84L328.46 163.48L328.19 164.12L327.91 164.76L327.62 165.39L327.32 166.02L327.01 166.65L326.69 167.27L326.36 167.88L326.02 168.5L325.68 169.1L324.81 170.61L315.71 188.33L315.41 188.99L315.01 189.91L314.62 190.83L314.24 191.75L313.88 192.69L313.53 193.62L313.2 194.56L312.88 195.5L312.57 196.45L312.28 197.4L312.01 198.36L311.74 199.32L311.5 200.28L311.26 201.25L311.05 202.21L310.84 203.19L310.65 204.16L310.48 205.14L310.32 206.11L310.17 207.09L310.04 208.08L309.93 209.06L309.82 210.05L309.74 211.04L309.66 212.03L309.61 213.02L309.56 214.01L309.54 215L309.52 215.99L309.52 216.99L309.54 217.98L309.57 218.97L309.62 219.97L309.68 220.96L309.76 221.96L309.85 222.95L309.95 223.94L310.07 224.93L310.21 225.92L310.36 226.91L310.52 227.9L312.62 239.85L304.05 228.47L303.71 228.02L303.38 227.56L303.05 227.11L302.72 226.65L302.4 226.18L302.08 225.72L301.76 225.25L301.45 224.78L301.14 224.3L300.84 223.83L300.54 223.35L300.24 222.87L299.95 222.39L299.67 221.9L299.38 221.41L299.1 220.92L298.83 220.43L298.55 219.94L298.29 219.44L298.02 218.94L297.76 218.44L297.51 217.94L297.26 217.44L297.01 216.93L296.77 216.42L296.53 215.91L296.29 215.4L296.06 214.88L295.83 214.36L295.61 213.85L295.39 213.33L295.18 212.8L294.97 212.28L294.76 211.75L294.56 211.22L294.37 210.7L294.23 210.31L294.14 210.03L294.01 209.55L293.87 209.08L293.74 208.6L293.62 208.12L293.5 207.64L293.38 207.16L293.27 206.68L293.16 206.2L293.05 205.71L292.95 205.23L292.86 204.74L292.76 204.26L292.68 203.77L292.59 203.29L292.51 202.8L292.44 202.31L292.37 201.82L292.3 201.33L292.24 200.84L292.18 200.35L292.12 199.86L292.07 199.37L292.02 198.88L291.98 198.38L291.94 197.89L291.91 197.4L291.88 196.9L291.85 196.41L291.83 195.92L291.82 195.42L291.8 194.93L291.79 194.43L291.79 193.94L291.79 193.44L291.79 192.94L291.8 192.45L291.82 191.77L291.85 191.1L291.88 190.42L291.93 189.75L291.99 189.08L292.05 188.41L292.12 187.74L292.2 187.07L292.29 186.4L292.39 185.74L292.5 185.08L292.62 184.42L292.75 183.76L292.88 183.1L293.02 182.44L293.18 181.79L293.34 181.14L293.51 180.49L293.69 179.84L293.87 179.2L294.07 178.56L294.27 177.92L294.49 177.28L294.71 176.65L294.94 176.02L295.18 175.39L295.42 174.77L295.68 174.15L295.94 173.53L296.22 172.92L296.5 172.31L296.79 171.7L297.08 171.1L297.39 170.5L297.7 169.9L298.02 169.31L298.35 168.72L298.69 168.13L299.04 167.55L299.39 166.98L303.49 160.43L310.08 146.67L310.16 146.51L310.23 146.34L310.31 146.18L310.39 146.02L310.46 145.85L310.54 145.69L310.61 145.53L310.68 145.36L310.75 145.2L310.83 145.03L310.9 144.87L310.97 144.7L311.04 144.54L311.1 144.37L311.17 144.2L311.24 144.04L311.31 143.87L311.37 143.7L311.44 143.53L311.5 143.37L311.57 143.2L311.63 143.03L311.69 142.86L311.76 142.69L311.82 142.52L311.88 142.36L311.94 142.19L312 142.02L312.06 141.85L312.11 141.68L312.17 141.51L312.23 141.34L312.28 141.16L312.34 140.99L312.39 140.82L312.45 140.65L312.5 140.48L312.55 140.31L312.61 140.13L312.66 139.96L312.91 139.07L313.15 138.18L313.38 137.28L313.6 136.38L313.8 135.48L313.99 134.58L314.16 133.67L314.32 132.77L314.47 131.86L314.6 130.95L314.72 130.04L314.82 129.12L314.91 128.21L314.99 127.3L315.06 126.38L315.11 125.46L315.14 124.55L315.17 123.63L315.18 122.71L315.17 121.8L315.15 120.88L315.12 119.96L315.08 119.05L315.02 118.13L314.95 117.22L314.86 116.3L314.76 115.39L314.65 114.48L314.52 113.57L314.38 112.66L314.23 111.75L314.06 110.85L313.88 109.95L313.69 109.05L313.48 108.15L313.26 107.25L313.02 106.36L312.77 105.47L312.51 104.58L312.23 103.7L310.56 98.49L313.96 102.11L314.46 102.65L314.46 102.65L314.96 103.19ZM487.58 167.76L487.36 168.46L487.14 169.16L486.91 169.87L486.67 170.56L486.43 171.26L486.18 171.95L485.93 172.64L485.67 173.33L485.4 174.02L485.12 174.7L484.84 175.38L484.56 176.06L484.26 176.73L483.96 177.4L483.66 178.07L483.35 178.74L483.03 179.4L482.7 180.06L482.37 180.71L482.03 181.37L481.69 182.02L481.34 182.67L480.99 183.31L480.63 183.95L480.26 184.59L479.89 185.22L479.51 185.85L479.12 186.48L478.73 187.1L478.33 187.72L477.93 188.34L477.52 188.95L477.11 189.56L476.69 190.17L476.49 190.45L476.33 190.64L475.99 191.04L475.66 191.44L475.32 191.83L474.98 192.22L474.63 192.61L474.29 192.99L473.94 193.37L473.58 193.75L473.22 194.12L472.86 194.49L472.5 194.86L472.13 195.23L471.77 195.59L471.39 195.95L471.02 196.31L470.64 196.66L470.26 197.01L469.88 197.36L469.49 197.7L469.1 198.04L468.71 198.38L468.31 198.71L467.91 199.04L467.51 199.37L467.11 199.7L466.7 200.02L466.29 200.33L465.88 200.65L465.47 200.96L465.05 201.27L464.63 201.57L464.21 201.87L463.78 202.17L463.36 202.46L462.93 202.76L462.88 202.79L462.29 203.17L461.71 203.55L461.11 203.92L460.51 204.27L459.91 204.62L459.3 204.96L458.69 205.3L458.07 205.62L457.45 205.93L456.83 206.24L456.2 206.53L455.57 206.82L454.93 207.1L454.29 207.37L453.65 207.62L453 207.87L452.35 208.11L451.7 208.35L451.04 208.57L450.38 208.78L449.72 208.98L449.05 209.18L448.39 209.36L447.72 209.54L447.04 209.7L446.37 209.86L445.69 210L445.01 210.14L444.33 210.26L443.64 210.38L442.95 210.49L442.27 210.59L441.58 210.67L440.88 210.75L440.19 210.82L439.5 210.88L438.8 210.93L438.1 210.96L437.4 210.99L436.7 211.01L434.97 211.04L415.1 212.42L414.38 212.51L413.38 212.63L412.39 212.78L411.4 212.93L410.42 213.1L409.44 213.29L408.46 213.49L407.49 213.71L406.52 213.93L405.56 214.18L404.6 214.44L403.64 214.71L402.69 214.99L401.74 215.29L400.8 215.61L399.86 215.93L398.93 216.28L398.01 216.63L397.08 217L396.17 217.38L395.26 217.78L394.36 218.19L393.46 218.61L392.57 219.05L391.69 219.5L390.81 219.96L389.94 220.44L389.07 220.92L388.22 221.43L387.37 221.94L386.53 222.47L385.69 223.01L384.86 223.56L384.05 224.13L383.23 224.71L382.43 225.3L381.64 225.9L380.85 226.52L380.07 227.15L379.3 227.79L378.54 228.44L369.4 236.41L374.71 223.2L374.92 222.67L375.14 222.15L375.36 221.63L375.58 221.11L375.81 220.6L376.05 220.08L376.28 219.57L376.53 219.06L376.77 218.55L377.02 218.05L377.28 217.54L377.54 217.04L377.8 216.54L378.06 216.04L378.33 215.55L378.61 215.06L378.89 214.57L379.17 214.08L379.46 213.59L379.75 213.11L380.04 212.63L380.34 212.15L380.64 211.67L380.95 211.2L381.26 210.73L381.57 210.26L381.89 209.79L382.21 209.33L382.53 208.87L382.86 208.41L383.2 207.95L383.53 207.5L383.87 207.05L384.22 206.6L384.56 206.16L384.92 205.71L385.18 205.39L385.37 205.18L385.71 204.81L386.05 204.45L386.39 204.1L386.73 203.74L387.08 203.39L387.43 203.04L387.79 202.7L388.14 202.35L388.5 202.01L388.86 201.68L389.23 201.35L389.6 201.02L389.97 200.69L390.34 200.36L390.72 200.04L391.1 199.73L391.48 199.41L391.86 199.1L392.25 198.8L392.64 198.49L393.03 198.19L393.42 197.89L393.82 197.6L394.22 197.31L394.62 197.02L395.03 196.74L395.44 196.46L395.85 196.18L396.26 195.9L396.67 195.63L397.09 195.37L397.51 195.1L397.93 194.84L398.35 194.59L398.78 194.33L399.21 194.08L399.8 193.75L400.39 193.43L400.98 193.11L401.58 192.8L402.19 192.5L402.79 192.21L403.41 191.92L404.02 191.65L404.64 191.38L405.26 191.12L405.88 190.87L406.51 190.63L407.14 190.4L407.77 190.17L408.4 189.96L409.04 189.75L409.68 189.55L410.33 189.36L410.97 189.18L411.62 189.01L412.27 188.84L412.92 188.69L413.58 188.54L414.23 188.4L414.89 188.28L415.55 188.16L416.21 188.04L416.88 187.94L417.54 187.85L418.21 187.76L418.88 187.69L419.55 187.62L420.22 187.56L420.89 187.52L421.56 187.48L422.23 187.45L422.91 187.42L423.58 187.41L424.26 187.41L424.93 187.41L432.66 187.53L447.84 186.06L448.02 186.04L448.2 186.02L448.38 186.01L448.56 185.99L448.74 185.97L448.92 185.94L449.1 185.92L449.27 185.9L449.45 185.88L449.63 185.85L449.81 185.83L449.99 185.8L450.16 185.77L450.34 185.75L450.52 185.72L450.7 185.69L450.88 185.66L451.05 185.63L451.23 185.6L451.41 185.57L451.58 185.54L451.76 185.51L451.94 185.47L452.11 185.44L452.29 185.4L452.47 185.37L452.64 185.33L452.82 185.3L452.99 185.26L453.17 185.22L453.35 185.18L453.52 185.14L453.7 185.1L453.87 185.06L454.05 185.02L454.22 184.98L454.4 184.93L454.57 184.89L454.74 184.84L454.92 184.8L455.81 184.56L456.7 184.3L457.59 184.03L458.47 183.75L459.34 183.46L460.21 183.15L461.08 182.83L461.94 182.5L462.79 182.16L463.64 181.8L464.48 181.43L465.31 181.05L466.14 180.65L466.97 180.25L467.78 179.83L468.59 179.4L469.4 178.96L470.19 178.5L470.98 178.04L471.77 177.56L472.54 177.07L473.31 176.57L474.07 176.06L474.83 175.53L475.57 175L476.31 174.45L477.04 173.9L477.76 173.33L478.47 172.75L479.18 172.16L479.88 171.56L480.56 170.95L481.24 170.33L481.91 169.7L482.57 169.05L483.23 168.4L483.87 167.74L484.5 167.06L485.13 166.38L485.74 165.68L489.33 161.56L487.99 166.34L487.79 167.05L487.79 167.05L487.58 167.76ZM406.84 111.17L407.04 111.87L407.24 112.57L407.43 113.26L407.61 113.97L407.79 114.67L407.96 115.37L408.13 116.08L408.28 116.79L408.43 117.5L408.57 118.21L408.71 118.92L408.84 119.63L408.96 120.34L409.08 121.06L409.19 121.77L409.29 122.49L409.38 123.2L409.47 123.92L409.55 124.64L409.62 125.36L409.69 126.08L409.75 126.8L409.8 127.53L409.85 128.25L409.89 128.97L409.92 129.69L409.94 130.42L409.96 131.14L409.97 131.87L409.97 132.59L409.97 133.31L409.96 134.04L409.94 134.76L409.92 135.49L409.9 135.97L409.85 136.4L409.78 136.9L409.71 137.41L409.64 137.91L409.56 138.41L409.48 138.92L409.39 139.42L409.3 139.92L409.2 140.42L409.1 140.92L409 141.41L408.89 141.91L408.77 142.41L408.65 142.9L408.53 143.4L408.4 143.89L408.27 144.38L408.13 144.87L407.99 145.36L407.85 145.85L407.7 146.33L407.54 146.82L407.39 147.3L407.22 147.78L407.06 148.26L406.88 148.74L406.71 149.22L406.53 149.7L406.34 150.17L406.16 150.65L405.96 151.12L405.77 151.59L405.56 152.06L405.36 152.52L405.15 152.99L404.93 153.45L404.9 153.51L404.61 154.13L404.3 154.74L403.99 155.35L403.66 155.96L403.33 156.55L402.99 157.14L402.64 157.73L402.28 158.31L401.91 158.88L401.54 159.45L401.15 160.01L400.76 160.57L400.36 161.11L399.95 161.66L399.53 162.19L399.1 162.72L398.67 163.24L398.22 163.76L397.77 164.26L397.32 164.77L396.85 165.26L396.38 165.75L395.9 166.22L395.41 166.7L394.91 167.16L394.41 167.62L393.9 168.07L393.38 168.51L392.86 168.94L392.33 169.37L391.79 169.78L391.24 170.19L390.69 170.6L390.13 170.99L389.57 171.37L389 171.75L388.42 172.12L387.84 172.47L387.25 172.82L386.65 173.17L384.61 174.32L368.05 184.83L367.05 185.54L366.26 186.11L365.47 186.7L364.7 187.3L363.93 187.92L363.18 188.54L362.44 189.18L361.71 189.82L360.99 190.48L360.29 191.15L359.59 191.83L358.91 192.53L358.23 193.23L357.57 193.94L356.92 194.66L356.29 195.4L355.66 196.14L355.05 196.89L354.45 197.66L353.87 198.43L353.29 199.21L352.73 200L352.18 200.8L351.65 201.61L351.12 202.43L350.62 203.26L350.12 204.09L349.64 204.93L349.17 205.79L348.71 206.64L348.27 207.51L347.85 208.39L347.43 209.27L347.03 210.16L346.65 211.06L346.28 211.96L345.92 212.87L345.58 213.79L345.25 214.71L344.94 215.64L344.65 216.58L341.09 228.12L338.08 213.38L337.97 212.83L337.86 212.29L337.76 211.74L337.67 211.19L337.58 210.64L337.49 210.09L337.41 209.54L337.33 208.99L337.26 208.44L337.2 207.89L337.13 207.34L337.08 206.79L337.02 206.23L336.98 205.68L336.93 205.13L336.89 204.57L336.86 204.02L336.83 203.47L336.81 202.91L336.79 202.36L336.77 201.8L336.76 201.25L336.76 200.69L336.76 200.14L336.76 199.58L336.77 199.03L336.79 198.47L336.8 197.92L336.83 197.36L336.85 196.81L336.89 196.25L336.93 195.7L336.97 195.15L337.01 194.59L337.07 194.04L337.12 193.48L337.18 192.99L337.25 192.6L337.33 192.12L337.43 191.64L337.52 191.16L337.63 190.69L337.73 190.21L337.84 189.74L337.96 189.27L338.08 188.8L338.2 188.33L338.33 187.86L338.46 187.39L338.6 186.92L338.74 186.46L338.88 185.99L339.03 185.53L339.18 185.07L339.34 184.61L339.5 184.15L339.67 183.7L339.84 183.24L340.02 182.79L340.19 182.34L340.38 181.89L340.56 181.44L340.76 180.99L340.95 180.55L341.15 180.11L341.36 179.66L341.56 179.22L341.78 178.79L341.99 178.35L342.21 177.92L342.44 177.48L342.67 177.05L342.9 176.63L343.14 176.2L343.47 175.62L343.81 175.05L344.15 174.49L344.5 173.93L344.87 173.37L345.24 172.83L345.61 172.28L346 171.75L346.39 171.22L346.79 170.69L347.19 170.17L347.61 169.66L348.03 169.16L348.46 168.66L348.89 168.16L349.34 167.68L349.79 167.2L350.24 166.72L350.71 166.26L351.18 165.8L351.65 165.34L352.13 164.9L352.62 164.46L353.12 164.03L353.62 163.6L354.13 163.19L354.64 162.78L355.17 162.37L355.69 161.98L356.22 161.59L356.76 161.21L357.31 160.84L357.86 160.47L358.41 160.11L358.97 159.76L359.54 159.42L360.11 159.09L360.69 158.76L361.27 158.45L361.86 158.14L369.15 154.38L381.88 145.77L382.03 145.67L382.17 145.57L382.32 145.47L382.46 145.37L382.61 145.27L382.75 145.17L382.9 145.06L383.04 144.96L383.18 144.85L383.33 144.75L383.47 144.64L383.61 144.54L383.75 144.43L383.89 144.32L384.03 144.21L384.17 144.11L384.31 144L384.45 143.89L384.59 143.78L384.72 143.67L384.86 143.55L385 143.44L385.14 143.33L385.27 143.21L385.41 143.1L385.54 142.99L385.68 142.87L385.81 142.76L385.94 142.64L386.08 142.52L386.21 142.4L386.34 142.29L386.47 142.17L386.6 142.05L386.73 141.93L386.86 141.81L386.99 141.69L387.12 141.57L387.25 141.44L387.38 141.32L387.5 141.21L388.15 140.57L388.78 139.93L389.41 139.27L390.03 138.61L390.63 137.93L391.22 137.25L391.8 136.56L392.37 135.86L392.92 135.15L393.47 134.43L394 133.71L394.52 132.97L395.02 132.23L395.52 131.48L396 130.72L396.47 129.96L396.93 129.19L397.37 128.41L397.8 127.62L398.22 126.83L398.63 126.03L399.02 125.22L399.4 124.41L399.77 123.59L400.12 122.76L400.46 121.93L400.78 121.1L401.1 120.25L401.4 119.41L401.68 118.55L401.95 117.69L402.21 116.83L402.45 115.96L402.68 115.09L402.9 114.21L403.1 113.33L403.28 112.45L403.46 111.56L403.62 110.66L403.76 109.77L404.61 104.17L406.4 109.78L406.62 110.48L406.62 110.48L406.84 111.17ZM194.2 223.34L193.47 223.24L193.08 223.2L192.82 223.15L192.31 223.05L191.8 222.97L191.28 222.88L190.77 222.8L195.66 223.55L194.93 223.44L194.93 223.44L194.2 223.34ZM294.17 210.16L294.23 210.31L294.28 210.5L294.43 210.98L294.58 211.45L294.73 211.92L293.62 208.56L293.8 209.1L293.99 209.63L293.99 209.63L294.17 210.16ZM385.27 205.27L385.18 205.39L385.04 205.54L384.71 205.91L384.38 206.29L384.06 206.66L386.36 203.97L385.99 204.4L385.63 204.84L385.63 204.84L385.27 205.27ZM337.18 192.93L337.18 192.99L337.16 193.08L337.08 193.56L337.01 194.04L336.94 194.52L337.4 191.28L337.32 191.83L337.25 192.38L337.25 192.38L337.18 192.93ZM475.83 191.36L476.26 190.77L476.49 190.45L476.65 190.24L476.98 189.84L477.3 189.43L477.62 189.02L477.94 188.61L474.95 192.55L475.39 191.96L475.39 191.96L475.83 191.36ZM226.56 169.94L227.66 170.46L228.69 171.09L229.63 171.84L230.49 172.68L231.25 173.61L231.9 174.63L232.43 175.72L232.84 176.87L233.12 178.09L233.25 179.34L233.23 180.64L233.11 182.37L232.97 183.48L232.72 184.55L232.37 185.58L231.93 186.56L231.39 187.48L230.77 188.34L230.07 189.13L229.29 189.85L228.45 190.49L227.55 191.04L226.59 191.51L225.58 191.89L224.53 192.16L223.45 192.33L222.33 192.38L221.08 192.31L219.88 192.12L218.72 191.8L217.62 191.36L216.57 190.82L215.6 190.18L214.69 189.44L213.87 188.61L213.13 187.71L212.49 186.73L211.94 185.68L211.51 184.58L211.19 183.42L211 182.21L210.93 180.97L210.93 179.39L210.98 178.35L211.14 177.35L211.39 176.38L211.73 175.45L212.16 174.56L212.67 173.73L213.26 172.94L213.92 172.23L214.64 171.57L215.43 170.99L216.28 170.49L217.17 170.06L218.12 169.73L219.1 169.49L220.13 169.34L221.63 169.21L222.93 169.18L224.19 169.29L225.4 169.55L225.4 169.55L226.56 169.94ZM454.35 155.31L455.45 155.83L456.47 156.47L457.42 157.21L458.28 158.05L459.03 158.99L459.68 160L460.22 161.09L460.63 162.25L460.9 163.46L461.04 164.71L461.02 166.01L460.9 167.74L460.76 168.85L460.51 169.92L460.16 170.95L459.71 171.93L459.18 172.85L458.55 173.71L457.85 174.5L457.08 175.22L456.24 175.86L455.34 176.42L454.38 176.88L453.37 177.26L452.32 177.53L451.23 177.7L450.11 177.75L448.87 177.68L447.67 177.49L446.51 177.17L445.41 176.73L444.36 176.19L443.38 175.55L442.48 174.81L441.65 173.98L440.92 173.08L440.27 172.1L439.73 171.05L439.3 169.95L438.98 168.79L438.78 167.59L438.72 166.34L438.72 164.76L438.77 163.72L438.92 162.72L439.17 161.75L439.52 160.82L439.95 159.93L440.46 159.1L441.04 158.32L441.7 157.6L442.43 156.94L443.22 156.36L444.06 155.86L444.96 155.43L445.9 155.1L446.89 154.86L447.92 154.72L449.42 154.58L450.72 154.55L451.98 154.66L453.19 154.92L453.19 154.92L454.35 155.31ZM247.25 155.33L246.67 154.88L246.35 154.64L246.16 154.47L245.76 154.13L245.37 153.8L244.97 153.47L244.57 153.14L248.41 156.25L247.83 155.79L247.83 155.79L247.25 155.33ZM296.26 120.94L297.35 121.46L298.38 122.09L299.33 122.84L300.18 123.68L300.94 124.61L301.59 125.63L302.12 126.72L302.53 127.87L302.81 129.09L302.94 130.34L302.93 131.64L302.8 133.37L302.66 134.48L302.42 135.55L302.07 136.58L301.62 137.56L301.08 138.48L300.46 139.34L299.76 140.13L298.98 140.85L298.14 141.49L297.24 142.04L296.28 142.51L295.28 142.89L294.23 143.16L293.14 143.33L292.02 143.38L290.78 143.31L289.57 143.12L288.42 142.8L287.31 142.36L286.27 141.82L285.29 141.18L284.38 140.44L283.56 139.61L282.82 138.71L282.18 137.73L281.64 136.68L281.2 135.58L280.89 134.42L280.69 133.21L280.62 131.97L280.62 130.39L280.68 129.35L280.83 128.35L281.08 127.38L281.42 126.45L281.85 125.56L282.36 124.73L282.95 123.94L283.61 123.23L284.33 122.57L285.12 121.99L285.97 121.49L286.87 121.06L287.81 120.73L288.8 120.49L289.82 120.34L291.32 120.21L292.62 120.18L293.88 120.29L295.1 120.55L295.1 120.55L296.26 120.94ZM409.85 136.94L409.89 136.21L409.9 135.97L409.91 135.89L409.96 135.38L410.01 134.87L410.06 134.37L410.1 133.86L409.75 138.39L409.8 137.66L409.8 137.66L409.85 136.94ZM377.91 115.94L379.01 116.46L380.03 117.09L380.98 117.84L381.83 118.68L382.59 119.61L383.24 120.63L383.78 121.72L384.19 122.87L384.46 124.09L384.6 125.34L384.58 126.64L384.45 128.37L384.32 129.48L384.07 130.55L383.72 131.58L383.27 132.56L382.74 133.48L382.11 134.34L381.41 135.13L380.64 135.85L379.8 136.49L378.89 137.04L377.94 137.51L376.93 137.89L375.88 138.16L374.79 138.33L373.67 138.38L372.43 138.31L371.23 138.12L370.07 137.8L368.96 137.36L367.92 136.82L366.94 136.18L366.04 135.44L365.21 134.61L364.47 133.71L363.83 132.73L363.29 131.68L362.86 130.58L362.54 129.42L362.34 128.21L362.28 126.97L362.28 125.39L362.33 124.35L362.48 123.35L362.73 122.38L363.08 121.45L363.5 120.56L364.01 119.73L364.6 118.94L365.26 118.23L365.99 117.57L366.78 116.99L367.62 116.49L368.52 116.06L369.46 115.73L370.45 115.49L371.47 115.34L372.98 115.21L374.27 115.18L375.53 115.29L376.75 115.55L376.75 115.55L377.91 115.94ZM329.09 125.46L328.8 124.78L328.64 124.42L328.56 124.17L328.38 123.68L328.2 123.2L328.01 122.71L327.82 122.23L329.65 126.83L329.37 126.14L329.37 126.14L329.09 125.46Z" id="b3zrMwKsZm" class="tHuSHuBy_0"></path></defs><g><g><use xlink:href="#b3zrMwKsZm" opacity="1" fill="#b94242" fill-opacity="0.94"></use><g><use xlink:href="#b3zrMwKsZm" opacity="1" fill-opacity="0" stroke="#ffffff" stroke-width="2.5" stroke-opacity="1"></use></g></g></g><style data-made-with="vivus-instant">.tHuSHuBy_0{stroke-dasharray:3152 3154;stroke-dashoffset:3153;animation:tHuSHuBy_draw_0 3000ms linear 0ms infinite,tHuSHuBy_fade 3000ms linear 0ms infinite;}@keyframes tHuSHuBy_draw{100%{stroke-dashoffset:0;}}@keyframes tHuSHuBy_fade{0%{stroke-opacity:1;}100%{stroke-opacity:1;}100%{stroke-opacity:0;}}@keyframes tHuSHuBy_draw_0{0%{stroke-dashoffset: 3153}100%{ stroke-dashoffset: 0;}100%{ stroke-dashoffset: 0;}}</style></svg>